<?xml version="1.0" encoding="UTF-8" standalone="no"?>
<!DOCTYPE svg PUBLIC "-//W3C//DTD SVG 1.1//EN" "http://www.w3.org/Graphics/SVG/1.1/DTD/svg11.dtd">
<svg width="100%" height="100%" viewBox="0 0 500 500" version="1.1" xmlns="http://www.w3.org/2000/svg" xmlns:xlink="http://www.w3.org/1999/xlink" xml:space="preserve" xmlns:serif="http://www.serif.com/" style="fill-rule:evenodd;clip-rule:evenodd;stroke-linejoin:round;stroke-miterlimit:2;">
    <path d="M448.833,175.001C454.365,191.626 458.787,208.491 460.025,226.062C460.627,234.605 462.106,243.162 461.864,251.675C460.936,284.36 455.085,315.986 441.126,345.928C431.71,366.126 419.887,384.543 405.271,401.363C387.361,421.974 366.443,438.612 342.612,451.839C321.712,463.44 299.393,471.072 276.112,475.74C265.851,477.798 255.232,478.374 244.74,478.887C234.225,479.401 223.611,479.682 213.136,478.853C192.538,477.223 172.428,472.763 153.056,465.487C135.251,458.799 118.345,450.23 102.798,439.219C87.281,428.228 73.155,415.721 60.606,401.299C47.162,385.849 35.821,369.106 27.014,350.707C16.955,329.692 9.671,307.731 7.01,284.463C5.758,273.52 4.027,262.509 4.18,251.552C4.643,218.317 10.827,186.217 24.964,155.823C34.286,135.78 46.065,117.502 60.57,100.802C78.585,80.062 99.536,63.154 123.642,50.069C145.628,38.134 168.784,29.541 193.628,26.018C203.21,24.659 212.87,23.579 222.53,23.11C232.713,22.615 243.007,22.246 253.132,23.159C274.671,25.1 295.754,29.517 315.807,37.973C323.703,41.302 331.97,44.042 339.302,48.353C351.579,55.572 363.639,63.305 375.033,71.833C383.728,78.342 391.731,85.967 399.164,93.916C407.107,102.411 414.294,111.665 421.241,121.011C423.853,124.524 425.023,124.332 427.949,121.681C442.867,108.167 457.846,94.713 473.105,81.588C476.856,78.362 481.54,75.949 486.174,74.13C488.665,73.153 493.362,73.109 494.58,74.631C496.629,77.192 497.864,81.502 497.399,84.786C495.266,99.838 487.849,112.912 479.979,125.523C470.473,140.756 460.121,155.46 449.839,170.835C449.355,171.451 449.178,171.637 449.013,171.833C448.7,172.047 448.387,172.261 447.676,172.738C446.907,173.001 446.537,173.001 446.097,172.613C441.084,156.258 432.84,141.962 424.045,127.698C423.136,128.49 422.614,128.899 422.143,129.361C382.882,167.95 343.906,206.836 304.2,244.962C291.83,256.84 277.813,267.109 263.937,277.278C254.022,284.544 242.596,288.547 229.876,285.89C212.882,282.339 197.128,275.476 182.75,266.02C164.467,253.995 146.642,241.247 128.941,228.369C112.271,216.241 96.284,203.164 79.466,191.252C71.302,185.47 62.099,181.036 53.031,176.693C47.94,174.254 44.727,176.979 45.069,182.611C45.205,184.835 45.701,187.226 46.728,189.175C51.437,198.112 55.589,207.492 61.418,215.658C75.199,234.963 89.364,254.035 104.236,272.507C117.345,288.79 131.031,304.702 145.521,319.758C168.611,343.75 191.971,367.546 220.621,385.312C229.764,390.981 239.632,391.601 248.716,385.865C265.816,375.065 280.341,361.148 294.876,347.374C310.189,332.864 324.55,317.345 339.26,302.202C343.522,297.814 347.577,293.223 351.691,288.692C359.769,279.793 367.822,270.871 376.173,261.804C376.96,260.729 377.458,259.808 378.081,258.598C379.432,257.193 380.659,256.075 382.173,254.804C382.96,253.729 383.458,252.808 384.081,251.598C385.432,250.193 386.659,249.075 388.173,247.804C388.96,246.729 389.458,245.808 390.073,244.607C391.088,243.538 391.986,242.748 393.173,241.804C393.96,240.729 394.458,239.808 395.073,238.607C396.088,237.538 396.986,236.748 398.173,235.804C398.96,234.729 399.458,233.808 400.073,232.607C401.088,231.538 401.986,230.748 403.173,229.804C403.96,228.729 404.458,227.808 405.058,226.623C405.735,225.892 406.31,225.425 407.173,224.804C407.96,223.729 408.458,222.808 409.073,221.607C410.088,220.538 410.986,219.748 412.173,218.804C412.96,217.729 413.458,216.808 414.059,215.623C414.735,214.892 415.31,214.425 416.173,213.804C416.96,212.729 417.458,211.808 418.059,210.623C418.735,209.892 419.31,209.425 420.173,208.804C420.96,207.729 421.458,206.808 422.059,205.623C422.735,204.892 423.31,204.425 424.173,203.804C424.96,202.729 425.458,201.808 426.029,200.661C426.285,200.15 426.546,199.99 427.173,199.804C427.96,198.729 428.458,197.808 429.059,196.623C429.735,195.892 430.31,195.425 431.173,194.804C431.96,193.729 432.458,192.808 433.029,191.661C433.285,191.15 433.546,190.99 434.173,190.804C434.96,189.729 435.458,188.808 436.029,187.661C436.285,187.15 436.546,186.99 437.173,186.804C437.96,185.729 438.458,184.808 439.029,183.661C439.285,183.15 439.546,182.99 440.173,182.804C440.96,181.729 441.458,180.808 442.029,179.661C442.285,179.15 442.546,178.99 443.173,178.804C443.96,177.729 444.458,176.808 444.99,175.66C445.023,175.434 445.167,175.001 445.534,175C446.878,175 447.856,175 448.833,175.001M219.468,252.095C229.698,258.727 240.578,259.233 250.4,252.516C257.718,247.511 264.439,240.983 269.804,233.904C282.296,217.418 289.961,198.684 293.173,178.064C295.9,160.552 291.615,145.11 280.278,131.942C264.063,113.109 239.597,106.603 216.064,116.106C202.162,121.72 192.24,131.545 185.805,145.283C179.116,159.56 179.456,174.072 183.054,188.751C189.022,213.102 198.174,235.778 219.468,252.095Z" style="fill:rgb(0,170,170);fill-rule:nonzero;"/>
</svg>
