<svg height="285pt" preserveAspectRatio="xMidYMid meet" viewBox="0 0 285 285" width="285pt" xmlns="http://www.w3.org/2000/svg"><path d="m403 2825c-186-50-340-206-388-392-23-86-22-1927 0-2022 42-175 182-324 365-387 53-18 98-19 1040-19 939 0 988 1 1040 19 180 62 309 190 363 361l22 70v970c0 922-1 973-19 1025-64 190-195 320-373 371-65 18-108 19-1033 18-797 0-974-3-1017-14zm682-700c131-34 175-94 183-247l4-88h-136-136v30c0 37-28 67-72 75-18 3-120 5-226 3l-194-3-24-28c-48-56-23-130 48-141 18-3 146-7 283-10 344-6 408-25 462-134 27-55 28-63 28-207 0-166-9-206-57-261-22-25-49-40-102-57-68-21-86-22-411-22-243 0-352 4-381 12-112 35-155 101-162 254l-5 99h136 135l6-44c12-78 20-81 245-84 222-4 274 1 302 29 26 26 26 102 0 128s-62 30-366 40c-293 10-340 19-394 75-42 44-61 118-61 247 0 187 31 262 125 305 82 38 119 42 425 43 228 1 298-2 345-14zm639-537c32-123 65-248 73-278l16-55 20 65c11 36 48 160 82 275l61 210 109 3 110 2 80-270c44-148 83-270 86-270 5 0 96 349 135 513l6 27h130c99 0 129-3 125-12-2-7-55-178-118-381l-114-367-159 2-159 3-38 130c-21 72-46 157-55 190s-19 66-23 72c-4 7-26-56-50-140-23-83-50-176-59-204l-16-53h-157-157l-26 78c-13 42-66 208-117 367-50 160-94 296-96 303-4 9 25 12 124 12h130z" transform="matrix(.1 0 0 -.1 0 285)"/></svg>